<svg width="512" height="512" viewBox="0 0 512 512" fill="none" xmlns="http://www.w3.org/2000/svg">
  <rect width="512" height="512" rx="64" fill="#1e3a5f"/>
  <g transform="translate(56, 56) scale(0.8)">
    <path d="M249.973 500.439C183.086 500.439 120.205 474.39 72.9046 427.097C-24.7234 329.466 -24.7264 170.618 72.8976 72.9913C120.194 25.7003 183.072 -0.347656 249.956 -0.347656C316.836 -0.347656 379.716 25.7003 427.011 72.9903C524.634 170.624 524.634 329.479 427.011 427.11C379.724 474.397 316.849 500.439 249.973 500.439ZM249.956 5.83434C184.725 5.83434 123.396 31.2373 77.2716 77.3643C-17.9434 172.576 -17.9394 327.507 77.2786 422.72C123.406 468.848 184.739 494.255 249.973 494.255C315.2 494.255 376.515 468.855 422.636 422.735C517.853 327.519 517.853 172.586 422.636 77.3633C376.509 31.2373 315.186 5.83434 249.956 5.83434Z" fill="white"/>
    <path d="M477.41 250.045C477.41 375.662 375.577 477.494 249.964 477.494C124.339 477.494 22.5098 375.662 22.5098 250.045C22.5098 124.431 124.339 22.5977 249.964 22.5977C375.577 22.5977 477.41 124.431 477.41 250.045ZM253.128 329.203C276.906 329.203 290.484 312.216 290.484 287.83L290.477 253.247H267.011L267.018 289.376C267.018 297.09 262.699 302.962 253.741 302.962C244.789 302.962 240.466 297.097 240.466 289.383L240.445 157.231C240.445 149.51 244.761 143.645 253.72 143.645C262.671 143.645 266.997 149.51 266.997 157.231L267.004 193.04H290.47L290.463 158.77C290.456 134.685 276.87 117.396 253.1 117.403C229.938 117.403 212.957 135.313 212.964 159.705L212.985 286.905C212.985 311.608 229.974 329.203 253.128 329.203Z" fill="white"/>
  </g>
</svg>
