<svg width="500" height="500" viewBox="0 0 500 500" fill="none" xmlns="http://www.w3.org/2000/svg">
<g clip-path="url(#clip0_1002_57321)">
<path d="M249.973 500.439C183.086 500.439 120.205 474.39 72.9046 427.097C-24.7234 329.466 -24.7264 170.618 72.8976 72.9913C120.194 25.7003 183.072 -0.347656 249.956 -0.347656C316.836 -0.347656 379.716 25.7003 427.011 72.9903C524.634 170.624 524.634 329.479 427.011 427.11C379.724 474.397 316.849 500.439 249.973 500.439ZM249.956 5.83434C184.725 5.83434 123.396 31.2373 77.2716 77.3643C-17.9434 172.576 -17.9394 327.507 77.2786 422.72C123.406 468.848 184.739 494.255 249.973 494.255C315.2 494.255 376.515 468.855 422.636 422.735C517.853 327.519 517.853 172.586 422.636 77.3633C376.509 31.2373 315.186 5.83434 249.956 5.83434Z" fill="#27316B"/>
<path d="M477.41 250.045C477.41 375.662 375.577 477.494 249.964 477.494C124.339 477.494 22.5098 375.662 22.5098 250.045C22.5098 124.431 124.339 22.5977 249.964 22.5977C375.577 22.5977 477.41 124.431 477.41 250.045ZM153.224 398.972C161.321 398.972 167.145 394.735 167.145 387.607C167.145 384.288 166.112 381.522 163.991 379.671C162.359 378.208 160.347 377.325 156.756 376.787L152.355 376.139C150.561 375.863 148.983 375.215 148.004 374.345C146.973 373.413 146.534 372.165 146.534 370.75C146.534 367.327 149.035 364.719 153.607 364.719C156.871 364.719 159.64 365.423 162.035 367.707L165.788 364.008C162.467 360.909 158.877 359.607 153.769 359.607C145.72 359.607 140.824 364.23 140.824 370.971C140.824 374.125 141.749 376.574 143.649 378.362C145.34 379.948 147.841 381.025 150.99 381.466L155.562 382.121C157.846 382.445 158.826 382.825 159.802 383.743C160.835 384.667 161.321 386.082 161.321 387.772C161.321 391.526 158.388 393.699 153.33 393.699C149.366 393.699 146.264 392.83 143.438 390.002L139.522 393.864C143.218 397.612 147.403 398.972 153.224 398.972ZM198.191 359.93H191.774L183.67 376.952L175.573 359.93H169.159L180.736 382.714V398.648H186.609V382.714L198.191 359.93ZM213.8 398.972C221.898 398.972 227.722 394.735 227.722 387.607C227.722 384.288 226.689 381.522 224.567 379.671C222.935 378.208 220.924 377.325 217.332 376.787L212.931 376.139C211.138 375.863 209.559 375.215 208.581 374.345C207.547 373.413 207.11 372.165 207.11 370.75C207.11 367.327 209.611 364.719 214.183 364.719C217.447 364.719 220.216 365.423 222.611 367.707L226.361 364.008C223.043 360.909 219.453 359.607 214.344 359.607C206.294 359.607 201.4 364.23 201.4 370.971C201.4 374.125 202.325 376.574 204.225 378.362C205.916 379.948 208.417 381.025 211.567 381.466L216.139 382.121C218.423 382.445 219.403 382.825 220.378 383.743C221.411 384.667 221.897 386.082 221.897 387.772C221.897 391.526 218.964 393.699 213.905 393.699C209.941 393.699 206.84 392.83 204.014 390.002L200.098 393.864C203.794 397.612 207.979 398.972 213.8 398.972ZM258.82 365.202V359.937H231.633V365.202H242.298V398.647H248.166V365.202H258.82ZM288.63 398.648V393.376H269.749V381.735H285.855V376.519H269.749V365.208H288.63V359.937H263.885V398.647L288.63 398.648ZM328.099 398.648V359.938H322.233L311.138 384.02L299.823 359.938H293.957V398.648H299.823V372.766L308.958 391.631H313.319L322.233 372.766V398.648H328.099ZM345.997 398.972C354.092 398.972 359.914 394.735 359.914 387.607C359.914 384.288 358.887 381.522 356.762 379.671C355.134 378.208 353.118 377.325 349.531 376.787L345.129 376.139C343.334 375.863 341.761 375.215 340.774 374.345C339.748 373.413 339.306 372.165 339.306 370.75C339.306 367.327 341.804 364.719 346.378 364.719C349.641 364.719 352.415 365.423 354.804 367.707L358.557 364.008C355.238 360.909 351.649 359.607 346.536 359.607C338.491 359.607 333.593 364.23 333.593 370.971C333.593 374.125 334.517 376.574 336.423 378.362C338.112 379.948 340.617 381.025 343.764 381.466L348.333 382.121C350.623 382.445 351.602 382.825 352.575 383.743C353.602 384.667 354.094 386.082 354.094 387.772C354.094 391.526 351.16 393.699 346.104 393.699C342.135 393.699 339.037 392.83 336.216 390.002L332.295 393.864C335.991 397.612 340.174 398.972 345.997 398.972ZM198.493 307.442H146.565V233.065H176.178V206.479H146.565V138.829H198.595C202.315 127.517 209.16 117.984 218.198 111.236H117.284V335.372H218.199C209.077 328.556 202.18 318.908 198.493 307.442ZM253.128 329.203C276.906 329.203 290.484 312.216 290.484 287.83L290.477 253.247H267.011L267.018 289.376C267.018 297.09 262.699 302.962 253.741 302.962C244.789 302.962 240.466 297.097 240.466 289.383L240.445 157.231C240.445 149.51 244.761 143.645 253.72 143.645C262.671 143.645 266.997 149.51 266.997 157.231L267.004 193.04H290.47L290.463 158.77C290.456 134.685 276.87 117.396 253.1 117.403C229.938 117.403 212.957 135.313 212.964 159.705L212.985 286.905C212.985 311.608 229.974 329.203 253.128 329.203ZM347.212 338.74C368.746 338.74 390.282 324.94 390.282 289.603C390.282 263.686 376.826 238.445 359.66 213.205C342.837 187.626 334.419 175.848 334.419 150.952C334.419 140.512 340.477 134.791 348.895 134.791C357.639 134.791 362.352 141.525 362.352 152.632V179.215H388.944V153.636C388.944 125.366 373.13 107.871 348.895 107.871C319.612 107.871 305.818 129.406 305.818 157.676C305.818 183.591 323.654 213.879 338.125 234.41C353.602 257.291 361.682 274.12 361.682 294.986C361.682 306.095 356.637 312.824 346.205 312.824C336.44 312.824 331.391 305.758 331.391 293.972V268.738H304.473V292.965C304.472 321.234 320.617 338.74 347.212 338.74Z" fill="#27316B"/>
</g>
<defs>
<clipPath id="clip0_1002_57321">
<rect width="500" height="500" fill="white"/>
</clipPath>
</defs>
</svg>
